<?xml version="1.0" standalone="no"?>
<!DOCTYPE svg PUBLIC "-//W3C//DTD SVG 20010904//EN"
 "http://www.w3.org/TR/2001/REC-SVG-20010904/DTD/svg10.dtd">
<svg version="1.0" xmlns="http://www.w3.org/2000/svg"
 width="438.000000pt" height="438.000000pt" viewBox="0 0 438.000000 438.000000"
 preserveAspectRatio="xMidYMid meet">
<metadata>
Created by potrace 1.14, written by Peter Selinger 2001-2017
</metadata>
<g transform="translate(0.000000,438.000000) scale(0.100000,-0.100000)"
fill="#000000" stroke="none">
<path d="M2730 3799 c-76 -8 -145 -18 -180 -24 -14 -3 -34 -7 -45 -9 -11 -2
-60 -14 -110 -26 -49 -12 -99 -23 -110 -26 -11 -2 -49 -13 -85 -24 -36 -11
-74 -22 -85 -24 -11 -2 -49 -13 -85 -24 -445 -140 -670 -202 -789 -217 -24 -3
-46 -7 -50 -9 -5 -4 -48 -9 -166 -22 -22 -2 -262 -5 -532 -6 l-493 -1 0 -126
0 -126 503 1 c276 0 527 4 557 9 30 4 66 9 80 10 14 2 53 8 87 14 35 7 75 14
90 17 70 13 312 77 448 119 216 67 516 156 545 161 14 3 34 8 45 11 11 4 25 8
30 9 6 1 56 11 112 23 102 22 117 24 243 37 104 11 463 4 565 -10 17 -3 53 -7
80 -10 65 -7 279 -44 325 -56 19 -5 46 -11 60 -14 33 -6 185 -54 230 -72 97
-40 244 -121 308 -169 l72 -54 0 153 0 154 -107 54 c-60 29 -126 61 -148 70
-37 16 -210 75 -245 83 -8 2 -40 11 -70 20 -30 8 -68 18 -85 21 -16 3 -49 9
-73 15 -23 5 -59 12 -80 14 -20 3 -48 8 -62 12 -14 3 -36 7 -50 8 -23 3 -63 8
-150 20 -130 18 -471 26 -580 14z"/>
<path d="M4237 2975 l-139 -133 -42 19 c-60 26 -268 85 -384 108 -145 30 -153
31 -206 37 -28 3 -52 7 -55 9 -4 2 -42 6 -86 10 -44 4 -91 9 -105 11 -46 10
-464 13 -520 4 -30 -4 -75 -11 -100 -15 -136 -20 -408 -89 -630 -160 -63 -21
-131 -41 -150 -46 -43 -12 -51 -14 -70 -22 -36 -14 -278 -79 -377 -102 -141
-31 -250 -49 -383 -60 -25 -2 -258 -4 -517 -4 l-473 -1 0 -125 0 -125 458 -1
c463 0 504 -2 570 -14 20 -4 48 -9 62 -12 117 -21 326 -103 605 -238 415 -201
539 -256 697 -309 71 -24 182 -52 235 -59 12 -2 25 -6 28 -9 8 -7 -97 -148
-184 -246 -70 -80 -199 -208 -280 -279 -66 -58 -254 -204 -271 -211 -8 -3 -17
-9 -20 -13 -8 -12 -210 -142 -310 -201 -89 -52 -371 -198 -382 -198 -3 0 -27
-10 -54 -22 -27 -12 -51 -23 -54 -23 -7 -2 -42 -15 -65 -25 -53 -22 -227 -72
-250 -71 -2 0 -18 -4 -35 -9 -74 -21 -257 -30 -355 -17 -76 10 -169 46 -222
87 -80 60 -124 154 -137 293 -4 40 9 59 19 28 10 -34 77 -93 133 -118 126 -55
282 -28 372 66 31 32 88 121 77 121 -2 0 1 21 8 46 39 156 -96 353 -262 380
-139 23 -240 -2 -340 -83 l-43 -34 0 -390 0 -389 33 -31 c73 -71 202 -128 347
-155 56 -10 251 -12 321 -3 114 16 132 19 239 45 290 69 612 224 990 477 122
82 295 208 360 263 14 12 67 56 117 98 142 119 332 300 450 430 28 31 53 53
55 49 2 -4 3 -315 3 -690 l-1 -683 126 0 126 0 -1 723 c0 397 1 731 3 743 3
17 11 21 50 20 44 0 167 10 240 19 315 40 620 136 850 267 l72 42 0 153 c0 84
-2 153 -4 153 -3 0 -33 -21 -68 -48 -35 -26 -92 -63 -128 -83 -91 -50 -301
-134 -386 -154 -10 -3 -42 -11 -71 -19 -29 -8 -65 -17 -80 -20 -172 -31 -258
-45 -261 -41 -2 2 -15 0 -28 -5 -13 -5 -24 -6 -24 -2 0 4 35 24 78 44 227 110
380 337 399 593 3 39 6 71 7 72 4 4 174 -54 216 -73 146 -66 256 -131 323
-193 l27 -25 0 156 c0 150 -1 156 -22 172 l-23 15 23 20 c22 19 22 24 20 184
l-3 165 -138 -133z m-1866 -317 c0 -35 2 -71 4 -80 2 -9 6 -34 9 -56 7 -56 50
-165 93 -236 73 -122 218 -243 348 -291 45 -16 93 -44 55 -31 -8 2 -46 7 -85
10 -38 3 -97 10 -130 16 -33 6 -73 14 -89 16 -93 17 -328 115 -636 266 -246
121 -356 173 -398 189 l-27 11 25 10 c14 5 63 20 110 34 47 13 112 33 145 44
83 27 429 130 490 145 87 22 85 23 86 -47z m-1956 -1600 c39 -46 35 -101 -11
-144 -43 -42 -96 -46 -139 -12 -76 60 -56 171 35 196 45 11 83 -2 115 -40z"/>
</g>
</svg>
